mtllib Quads.mtl
# vertices
v -32 -16 -32
v -32 -16 32
v -32 0 32
v -32 0 -32
v 32 0 32
v 32 -16 32
v 32 -16 -32
v 32 0 -32
v -16 0 -16
v -16 0 16
v -16 40 16
v -16 40 -16
v 16 40 16
v 16 0 16
v 16 0 -16
v 16 40 -16

# texture coordinates
vt 2 -0.5
vt -2 -0.5
vt -2 0.5
vt 2 0.5
vt 2 -2
vt -2 -2
vt -2 2
vt 2 2
vt 0.75 -0.25
vt -1.25 -0.25
vt -1.25 2.25
vt 0.75 2.25
vt 1 3
vt -1 3
vt -1 0.5
vt 1 0.5
vt 1 -1
vt -1 -1
vt -1 1
vt 1 1

# normals
vn -1 0 -0
vn 0 0 1
vn 0 -1 -0
vn 0 1 -0
vn 0 0 -1
vn 1 0 -0

o entity0_brush0
usemtl __TB_empty
f  1/1/1  2/2/1  3/3/1  4/4/1
usemtl __TB_empty
f  5/4/2  3/3/2  2/2/2  6/1/2
usemtl __TB_empty
f  6/5/3  2/6/3  1/7/3  7/8/3
usemtl __TB_empty
f  8/8/4  4/7/4  3/6/4  5/5/4
usemtl __TB_empty
f  7/1/5  1/2/5  4/3/5  8/4/5
usemtl __TB_empty
f  8/4/6  5/3/6  6/2/6  7/1/6

o entity0_brush1
usemtl __TB_empty
f  9/9/1  10/10/1  11/11/1  12/12/1
usemtl __TB_empty
f  13/13/2  11/14/2  10/15/2  14/16/2
usemtl __TB_empty
f  14/17/3  10/18/3  9/19/3  15/20/3
usemtl __TB_empty
f  16/20/4  12/19/4  11/18/4  13/17/4
usemtl __TB_empty
f  15/16/5  9/15/5  12/14/5  16/13/5
usemtl __TB_empty
f  16/12/6  13/11/6  14/10/6  15/9/6

